<?xml version="1.0" standalone="no"?>
<!DOCTYPE svg PUBLIC "-//W3C//DTD SVG 20010904//EN"
 "http://www.w3.org/TR/2001/REC-SVG-20010904/DTD/svg10.dtd">
<svg version="1.0" xmlns="http://www.w3.org/2000/svg"
 width="588.000000pt" height="588.000000pt" viewBox="0 0 588.000000 588.000000"
 preserveAspectRatio="xMidYMid meet">
<metadata>
Created by potrace 1.14, written by Peter Selinger 2001-2017
</metadata>
<g transform="translate(0.000000,588.000000) scale(0.100000,-0.100000)"
fill="#000000" stroke="none">
<path d="M1990 2940 l0 -1170 175 0 175 0 0 861 c0 683 3 860 12 857 7 -3 280
-390 607 -861 l594 -857 163 0 164 0 0 1170 0 1170 -175 0 -175 0 0 -860 c0
-563 -3 -860 -10 -860 -13 0 11 -34 -638 903 l-566 817 -163 0 -163 0 0 -1170z"/>
</g>
</svg>
